<svg width="204" height="104" viewBox="0 0 204 104" fill="none" xmlns="http://www.w3.org/2000/svg">
<path fill-rule="evenodd" clip-rule="evenodd" d="M4 0C1.79086 0 0 1.79086 0 4V100C0 102.209 1.79086 104 4 104H200C202.209 104 204 102.209 204 100V4C204 1.79086 202.209 0 200 0H4ZM102 4L200 4V100H102V4ZM185.195 34.1476C180.925 30.8418 175.553 28.8446 169.768 28.8446C155.994 28.8446 144.768 40.0705 144.768 53.8446C144.768 67.6187 155.994 78.8446 169.768 78.8446C175.829 78.8446 181.407 76.6407 185.746 73.0595L179.548 65.9658C170.457 72.8529 155.512 67.4121 155.512 53.8446C155.512 40.8969 169.63 35.2496 178.997 41.3102L185.195 34.1476ZM137.904 39.244V29.6022H118V39.244H123.165V68.2385H118V77.8804H137.904V68.2385H132.807V39.244H137.904ZM21 28.59H54.8025V38.7235H31.1335V48.0608H50.6767V58.1944H31.1335V79.33H21V28.59ZM59.1449 48.1332H66.166L67.4689 51.6799C69.7851 48.6399 73.9109 47.337 78.0367 47.337C79.8462 47.337 81.6558 47.6265 83.3206 48.2056L79.7738 56.24C74.4899 53.9238 69.1337 57.1086 68.1927 62.103V79.33H59.1449V48.1332Z" fill="#C3073F"/>
</svg>
